<?xml version="1.0" encoding="iso-8859-1"?>
<!-- Generator: Adobe Illustrator 19.0.0, SVG Export Plug-In . SVG Version: 6.00 Build 0)  -->
<svg version="1.1" id="Layer_1" xmlns="http://www.w3.org/2000/svg" xmlns:xlink="http://www.w3.org/1999/xlink" x="0px" y="0px"
	 viewBox="0 0 512 512" style="enable-background:new 0 0 512 512;" xml:space="preserve">
<path style="fill:#8BC0FF;" d="M222.609,478.609C222.609,497.05,237.558,512,256,512l11.13-33.391L256,445.217
	C237.558,445.217,222.609,460.168,222.609,478.609z"/>
<path style="fill:#3897FF;" d="M256,445.217V512c18.442,0,33.391-14.95,33.391-33.391S274.442,445.217,256,445.217z"/>
<g>
	<path style="fill:#8BC0FF;" d="M233.32,281.163l-10.711,9.913v109.62H256l22.261-70.312L256,260.072
		C243.217,272,233.559,280.941,233.32,281.163z"/>
	<path style="fill:#8BC0FF;" d="M107.965,148.035h66.783c0-44.802,36.45-81.252,81.252-81.252l22.261-33.391L256,0
		C174.374,0,107.965,66.409,107.965,148.035z"/>
</g>
<path style="fill:#3897FF;" d="M256,0v66.783c44.802,0,81.252,36.45,81.252,81.252c0,21.703-8.452,42.108-23.798,57.454
	c-12.035,12.034-38.268,36.677-57.454,54.583v140.624h33.391v-80.459c18.43-17.133,55.505-51.747,71.285-67.525
	c27.961-27.961,43.359-65.136,43.359-104.677C404.035,66.409,337.627,0,256,0z"/>
<g>
</g>
<g>
</g>
<g>
</g>
<g>
</g>
<g>
</g>
<g>
</g>
<g>
</g>
<g>
</g>
<g>
</g>
<g>
</g>
<g>
</g>
<g>
</g>
<g>
</g>
<g>
</g>
<g>
</g>
</svg>
